<svg xmlns="http://www.w3.org/2000/svg" style="display:none">

  <!-- google -->
  <symbol id="icon-google" viewBox="0 0 18 18">
    <path d="M18 8.79024C18 12.9402 15.79 18.0002 9.13 18.0002C4.12461 18.0334 0.03852 14.0055 0 9.00024C0.03852 3.99485 4.12461 -0.0330555 9.13 0.000204506C11.2007 0.00788451 13.2085 0.712375 14.83 2.0002C14.942 2.09173 15.0109 2.22581 15.02 2.3702C15.0206 2.51629 14.963 2.65661 14.86 2.7602C14.209 3.3554 13.5882 3.98285 13 4.6402C12.8289 4.8285 12.5422 4.85456 12.34 4.7002C11.4161 4.01648 10.2888 3.66418 9.14 3.7002C6.18528 3.7002 3.79 6.09548 3.79 9.05024C3.79 12.0049 6.18528 14.4002 9.14 14.4002C12.14 14.4002 13.41 13.1202 14.07 10.8502H9.5C9.2239 10.8502 9 10.6263 9 10.3502V7.70024C9 7.42404 9.2239 7.20024 9.5 7.20024H17.5C17.7302 7.19874 17.9244 7.37135 17.95 7.60024C17.9871 7.99575 18.0038 8.39294 18 8.79024Z" fill="currentColor"/>
  </symbol>

  <!-- chevron-down -->
  <symbol id="icon-chevron-down" viewBox="0 0 12 7">
    <path d="M0.876953 0.5C0.977777 0.5 1.05475 0.530412 1.13281 0.608398L5.43555 4.93555L5.78906 5.29102L10.4717 0.608398C10.5493 0.5308 10.6158 0.50883 10.6963 0.511719C10.7906 0.515167 10.872 0.547734 10.958 0.633789C11.0361 0.711877 11.0664 0.788789 11.0664 0.889648C11.0663 0.990272 11.0359 1.06658 10.958 1.14453L6.03906 6.06348C5.9849 6.11764 5.94222 6.14356 5.91406 6.15527C5.87854 6.17004 5.83866 6.17869 5.79004 6.17871C5.76558 6.17871 5.74323 6.17591 5.72266 6.17188L5.66504 6.15527L5.6123 6.125C5.59155 6.11053 5.56793 6.09039 5.54102 6.06348L0.59668 1.12012C0.522843 1.04628 0.496654 0.97665 0.5 0.881836C0.503794 0.774532 0.53981 0.690659 0.62207 0.608398C0.699995 0.530589 0.776363 0.500076 0.876953 0.5Z" fill="currentColor" stroke="currentColor"/>
  </symbol>

  <!-- chevron-up -->
  <symbol id="icon-chevron-up" viewBox="0 0 12 7">
    <path d="M5.77637 0.5C5.87021 0.5 5.94626 0.52829 6.02637 0.608398L10.9697 5.55273C11.0517 5.63472 11.0781 5.7086 11.0781 5.7959C11.0781 5.88314 11.0517 5.95712 10.9697 6.03906C10.8917 6.11706 10.8147 6.14746 10.7139 6.14746C10.6133 6.14738 10.5369 6.11689 10.459 6.03906L10.458 6.03809L6.12891 1.73438L5.77539 1.38281L1.09473 6.06348C1.01698 6.14122 0.950758 6.16309 0.870117 6.16016C0.775851 6.15671 0.694454 6.12512 0.608398 6.03906C0.530288 5.96094 0.5 5.8841 0.5 5.7832C0.500009 5.68232 0.530285 5.60546 0.608398 5.52734L5.52734 0.608398C5.60734 0.528399 5.6827 0.500077 5.77637 0.5Z" fill="currentColor" stroke="currentColor"/>
  </symbol>

  <!-- logout -->
  <symbol id="icon-logout" viewBox="0 0 18 19">
    <path d="M1.70325 18.305C1.24325 18.305 0.844417 18.1361 0.50675 17.7983C0.168917 17.4606 0 17.0617 0 16.6017V1.70925C0 1.24758 0.168917 0.847332 0.50675 0.508499C0.844417 0.169499 1.24325 0 1.70325 0H8.30875C8.54908 0 8.75108 0.0834154 8.91475 0.250249C9.07842 0.417249 9.16025 0.621333 9.16025 0.8625C9.16025 1.10383 9.07842 1.30533 8.91475 1.467C8.75108 1.6285 8.54908 1.70925 8.30875 1.70925H1.70325V16.6017H8.30875C8.54908 16.6017 8.75108 16.684 8.91475 16.8485C9.07842 17.013 9.16025 17.2161 9.16025 17.4577C9.16025 17.6994 9.07842 17.901 8.91475 18.0625C8.75108 18.2242 8.54908 18.305 8.30875 18.305H1.70325ZM15.0412 10.0072H6.96525C6.72492 10.0072 6.52292 9.92492 6.35925 9.76025C6.19558 9.59575 6.11375 9.39267 6.11375 9.151C6.11375 8.9095 6.19558 8.70792 6.35925 8.54625C6.52292 8.38458 6.72492 8.30375 6.96525 8.30375H14.9912L13.068 6.3805C12.898 6.20967 12.8172 6.00958 12.8255 5.78025C12.8338 5.55075 12.923 5.352 13.093 5.184C13.2628 5.01217 13.4653 4.92725 13.7003 4.92925C13.9351 4.93125 14.1388 5.01717 14.3115 5.187L17.7083 8.58375C17.8741 8.75508 17.957 8.95433 17.957 9.1815C17.957 9.40867 17.8741 9.60725 17.7083 9.77725L14.3365 13.149C14.1698 13.3188 13.9718 13.4006 13.7423 13.3942C13.5126 13.3879 13.3096 13.2998 13.1332 13.13C12.9697 12.96 12.8869 12.7572 12.8847 12.5215C12.8826 12.2857 12.9687 12.0823 13.143 11.9115L15.0412 10.0072Z" fill="currentColor"/>
  </symbol>

  <!-- calendar -->
  <symbol id="icon-calendar" viewBox="0 0 19 21">
    <path d="M6.00575 14.4412C5.32542 14.4412 4.75192 14.2064 4.28525 13.7367C3.81858 13.2671 3.58525 12.6921 3.58525 12.0117C3.58525 11.3314 3.82017 10.7579 4.29 10.2912C4.75967 9.82458 5.33467 9.59125 6.015 9.59125C6.69517 9.59125 7.26858 9.82617 7.73525 10.296C8.20192 10.7657 8.43525 11.3407 8.43525 12.021C8.43525 12.7012 8.20042 13.2746 7.73075 13.7412C7.26108 14.2079 6.68608 14.4412 6.00575 14.4412ZM1.70325 20.305C1.24325 20.305 0.844417 20.1361 0.50675 19.7983C0.168917 19.4606 0 19.0617 0 18.6017V3.20925C0 2.74758 0.168917 2.34733 0.50675 2.0085C0.844417 1.6695 1.24325 1.5 1.70325 1.5H3.2745V0.853749C3.2745 0.614582 3.3575 0.412499 3.5235 0.247499C3.68967 0.0824991 3.89167 0 4.1295 0C4.37433 0 4.58083 0.0824991 4.749 0.247499C4.91717 0.412499 5.00125 0.614582 5.00125 0.853749V1.5H13.2977V0.853749C13.2977 0.614582 13.3808 0.412499 13.547 0.247499C13.713 0.0824991 13.9149 0 14.1528 0C14.3977 0 14.6042 0.0824991 14.7722 0.247499C14.9404 0.412499 15.0245 0.614582 15.0245 0.853749V1.5H16.5957C17.0574 1.5 17.4577 1.6695 17.7965 2.0085C18.1355 2.34733 18.305 2.74758 18.305 3.20925V18.6017C18.305 19.0617 18.1355 19.4606 17.7965 19.7983C17.4577 20.1361 17.0574 20.305 16.5957 20.305H1.70325ZM1.70325 18.6017H16.5957V7.9055H1.70325V18.6017ZM1.70325 6.4055H16.5957V3.20925H1.70325V6.4055Z" fill="currentColor"/>
  </symbol>

  <!-- branch -->
  <symbol id="icon-branch" viewBox="0 0 21 19">
    <path d="M17.2875 18.275C16.5603 18.275 15.9326 18.0589 15.4043 17.6268C14.8761 17.1944 14.5433 16.6766 14.406 16.0732H9.2125C8.09933 16.0732 7.17758 15.7078 6.44725 14.977C5.71692 14.246 5.35175 13.3235 5.35175 12.2095C5.35175 11.0995 5.71692 10.179 6.44725 9.448C7.17758 8.71717 8.09933 8.35175 9.2125 8.35175H11.1375C11.8077 8.35175 12.3568 8.13758 12.7848 7.70925C13.2128 7.28108 13.4268 6.73175 13.4268 6.06125C13.4268 5.39075 13.2128 4.84183 12.7848 4.4145C12.3568 3.987 11.8077 3.77325 11.1375 3.77325H5.875C5.717 4.37658 5.37808 4.89442 4.85825 5.32675C4.33825 5.75892 3.71467 5.975 2.9875 5.975C2.152 5.975 1.44517 5.68592 0.867 5.10775C0.289 4.52958 0 3.82275 0 2.98725C0 2.15158 0.289 1.44475 0.867 0.86675C1.44517 0.288916 2.152 0 2.9875 0C3.71467 0 4.33825 0.216083 4.85825 0.64825C5.37808 1.08058 5.717 1.59842 5.875 2.20175H11.1375C12.2495 2.20175 13.171 2.56717 13.902 3.298C14.6328 4.029 14.9983 4.9505 14.9983 6.0625C14.9983 7.1745 14.6328 8.096 13.902 8.827C13.171 9.55783 12.2495 9.92325 11.1375 9.92325H9.2125C8.54117 9.92325 7.99183 10.137 7.5645 10.5645C7.137 10.9918 6.92325 11.5402 6.92325 12.2095C6.92325 12.8828 7.137 13.4332 7.5645 13.8605C7.99183 14.288 8.54117 14.5017 9.2125 14.5017H14.406C14.56 13.8984 14.8969 13.3806 15.4167 12.9482C15.9367 12.5161 16.5603 12.3 17.2875 12.3C18.123 12.3 18.8298 12.5891 19.408 13.1673C19.986 13.7454 20.275 14.4523 20.275 15.2878C20.275 16.1234 19.986 16.8302 19.408 17.4083C18.8298 17.9861 18.123 18.275 17.2875 18.275ZM2.9875 4.3375C3.37083 4.3375 3.69167 4.20833 3.95 3.95C4.20833 3.69167 4.3375 3.37083 4.3375 2.9875C4.3375 2.60417 4.20833 2.28333 3.95 2.025C3.69167 1.76667 3.37083 1.6375 2.9875 1.6375C2.60417 1.6375 2.28333 1.76667 2.025 2.025C1.76667 2.28333 1.6375 2.60417 1.6375 2.9875C1.6375 3.37083 1.76667 3.69167 2.025 3.95C2.28333 4.20833 2.60417 4.3375 2.9875 4.3375Z" fill="currentColor"/>
  </symbol>

  <!-- book -->
  <symbol id="icon-book" viewBox="0 0 17 21">
    <path d="M1.6615 14.1077C1.89867 13.9561 2.15608 13.8408 2.43375 13.762C2.71142 13.683 3.00942 13.6435 3.32775 13.6435H4.1615V1.6615H3.32775C2.85958 1.6615 2.46483 1.82317 2.1435 2.1465C1.82217 2.46983 1.6615 2.86558 1.6615 3.33375V14.1077ZM5.82275 13.6435H14.6435V1.6615H5.82275V13.6435ZM3.32775 20.305C2.40658 20.305 1.62167 19.9807 0.973 19.332C0.324333 18.6833 0 17.8984 0 16.9772V3.33375C0 2.41092 0.324333 1.62458 0.973 0.97475C1.62167 0.324916 2.40658 0 3.32775 0H14.5957C15.0699 0 15.4733 0.166332 15.806 0.498999C16.1387 0.831666 16.305 1.23508 16.305 1.70925V14.644C16.305 14.807 16.2633 14.9548 16.18 15.0872C16.0967 15.2198 15.99 15.3129 15.86 15.3667C15.5552 15.4929 15.3161 15.6984 15.1427 15.9832C14.9694 16.2682 14.8827 16.597 14.8827 16.9695C14.8827 17.342 14.969 17.6697 15.1415 17.9525C15.314 18.2355 15.5524 18.4385 15.8567 18.5615C16.0007 18.6242 16.1115 18.7335 16.189 18.8895C16.2663 19.0455 16.305 19.2346 16.305 19.4567V19.4845C16.305 19.7113 16.2244 19.9047 16.0632 20.0647C15.9022 20.2249 15.7049 20.305 15.4712 20.305H3.32775ZM3.31625 18.6435H13.6662C13.5256 18.4065 13.4162 18.1447 13.3382 17.8582C13.2602 17.5716 13.2212 17.2782 13.2212 16.978C13.2212 16.6602 13.2607 16.3622 13.3395 16.0842C13.4185 15.8063 13.5357 15.5465 13.6912 15.305H3.318C2.86033 15.305 2.46983 15.4667 2.1465 15.79C1.82317 16.1133 1.6615 16.509 1.6615 16.977C1.6615 17.4413 1.82317 17.8352 2.1465 18.1585C2.46983 18.4818 2.85975 18.6435 3.31625 18.6435Z" fill="currentColor"/>
  </symbol>

  <!-- profile -->
  <symbol id="icon-profile" viewBox="0 0 21 21">
    <path d="M3.7235 15.7147C4.7695 14.9894 5.80717 14.4329 6.8365 14.0452C7.86583 13.6576 8.971 13.4637 10.152 13.4637C11.3332 13.4637 12.4436 13.6591 13.4832 14.0498C14.5227 14.4406 15.5618 14.9956 16.6005 15.7147C17.326 14.8107 17.8399 13.9095 18.1423 13.011C18.4446 12.1123 18.5957 11.1605 18.5957 10.1555C18.5957 7.75783 17.7876 5.75067 16.1712 4.134C14.5549 2.5175 12.548 1.70925 10.1505 1.70925C7.75317 1.70925 5.74592 2.5175 4.12875 4.134C2.51175 5.75067 1.70325 7.75783 1.70325 10.1555C1.70325 11.1602 1.85767 12.1113 2.1665 13.009C2.47533 13.9067 2.99433 14.8086 3.7235 15.7147ZM10.1448 10.9472C9.16858 10.9472 8.34858 10.6136 7.68475 9.94625C7.02075 9.27875 6.68875 8.45825 6.68875 7.48475C6.68875 6.51125 7.02225 5.69133 7.68925 5.025C8.35642 4.35867 9.17808 4.0255 10.1543 4.0255C11.1304 4.0255 11.9504 4.36025 12.6143 5.02975C13.2783 5.69908 13.6102 6.5205 13.6102 7.494C13.6102 8.46767 13.2767 9.28667 12.6097 9.951C11.9426 10.6152 11.1209 10.9472 10.1448 10.9472ZM10.1578 20.305C8.76558 20.305 7.4525 20.0389 6.2185 19.5068C4.98433 18.9746 3.9055 18.2468 2.982 17.3235C2.05833 16.4 1.33042 15.323 0.79825 14.0925C0.266083 12.8622 0 11.5474 0 10.1482C0 8.75375 0.2665 7.44242 0.7995 6.21425C1.3325 4.98592 2.06017 3.91067 2.9825 2.9885C3.90467 2.06617 4.98108 1.3375 6.21175 0.802499C7.44242 0.267499 8.75742 0 10.1568 0C11.5513 0 12.8626 0.267499 14.0908 0.802499C15.3191 1.3375 16.3943 2.06617 17.3165 2.9885C18.2388 3.91067 18.9675 4.98633 19.5025 6.2155C20.0375 7.44467 20.305 8.75525 20.305 10.1473C20.305 11.5394 20.0375 12.8527 19.5025 14.0872C18.9675 15.3219 18.2388 16.4003 17.3165 17.3225C16.3943 18.2448 15.3187 18.9725 14.0895 19.5055C12.8603 20.0385 11.5498 20.305 10.1578 20.305ZM10.1495 18.6017C11.0542 18.6017 11.9341 18.4724 12.7893 18.2138C13.6443 17.9549 14.4967 17.4982 15.3468 16.8435C14.4928 16.2475 13.6361 15.7962 12.7768 15.4895C11.9173 15.1828 11.0415 15.0295 10.1495 15.0295C9.2575 15.0295 8.38275 15.1828 7.52525 15.4895C6.66792 15.7962 5.81225 16.2475 4.95825 16.8435C5.80825 17.4982 6.65975 17.9549 7.51275 18.2138C8.36592 18.4724 9.24483 18.6017 10.1495 18.6017ZM10.1495 9.3755C10.7037 9.3755 11.1571 9.20033 11.5097 8.85C11.8624 8.49967 12.0388 8.04617 12.0388 7.4895C12.0388 6.93283 11.8624 6.47833 11.5097 6.126C11.1571 5.7735 10.7037 5.59725 10.1495 5.59725C9.59533 5.59725 9.14192 5.7735 8.78925 6.126C8.43658 6.47833 8.26025 6.93283 8.26025 7.4895C8.26025 8.04617 8.43658 8.49967 8.78925 8.85C9.14192 9.20033 9.59533 9.3755 10.1495 9.3755Z" fill="currentColor"/>
  </symbol>

  <!-- close -->
  <symbol id="icon-close" viewBox="0 0 14 14">
    <path d="M12.1748 0.5C12.3391 0.5 12.4411 0.548503 12.5215 0.628906C12.6017 0.709215 12.6503 0.810702 12.6504 0.974609C12.6504 1.13881 12.6018 1.2409 12.5215 1.32129L7.26758 6.5752L7.62109 6.92871L12.5215 11.8281C12.6019 11.9085 12.6504 12.0106 12.6504 12.1748C12.6504 12.3391 12.6019 12.4411 12.5215 12.5215C12.4411 12.6019 12.3391 12.6504 12.1748 12.6504C12.0106 12.6504 11.9085 12.6019 11.8281 12.5215L6.92871 7.62109L6.5752 7.26758L1.32129 12.5215C1.2409 12.6018 1.13881 12.6504 0.974609 12.6504C0.810702 12.6503 0.709215 12.6017 0.628906 12.5215C0.548503 12.4411 0.5 12.3391 0.5 12.1748C0.500038 12.0106 0.548535 11.9085 0.628906 11.8281L5.88184 6.5752L5.52832 6.22168L0.628906 1.32129C0.548504 1.24089 0.5 1.13888 0.5 0.974609C0.500076 0.810568 0.548567 0.709245 0.628906 0.628906C0.709245 0.548567 0.810568 0.500076 0.974609 0.5C1.13888 0.5 1.24089 0.548504 1.32129 0.628906L6.22168 5.52832L6.5752 5.88184L11.8281 0.628906C11.9085 0.548535 12.0106 0.500038 12.1748 0.5Z" fill="currentColor" stroke="currentColor"/>
  </symbol>

  <!-- cutlery / restaurant -->
  <symbol id="icon-cutlery" viewBox="0 0 19 21">
    <path d="M4.05975 20.305C3.81808 20.305 3.61642 20.2232 3.45475 20.0595C3.29325 19.8958 3.2125 19.6938 3.2125 19.4533V10.9265C2.21467 10.6763 1.42975 10.2031 0.85775 9.50675C0.285917 8.81042 0 7.99567 0 7.0625V0.833749C0 0.600083 0.0804167 0.40275 0.24125 0.24175C0.402083 0.0805829 0.599167 0 0.8325 0C1.06583 0 1.26233 0.0805829 1.422 0.24175C1.5815 0.40275 1.66125 0.600083 1.66125 0.833749V6.211H3.23625V0.833749C3.23625 0.600083 3.31675 0.40275 3.47775 0.24175C3.63858 0.0805829 3.83567 0 4.069 0C4.30233 0 4.49875 0.0805829 4.65825 0.24175C4.81792 0.40275 4.89775 0.600083 4.89775 0.833749V6.211H6.49775V0.833749C6.49775 0.600083 6.57817 0.40275 6.739 0.24175C6.9 0.0805829 7.09717 0 7.3305 0C7.56383 0 7.76025 0.0805829 7.91975 0.24175C8.07942 0.40275 8.15925 0.600083 8.15925 0.833749V7.05075C8.15925 7.98758 7.87125 8.80117 7.29525 9.4915C6.71942 10.182 5.92625 10.6581 4.91575 10.9197V19.4533C4.91575 19.6938 4.8335 19.8958 4.669 20.0595C4.5045 20.2232 4.30142 20.305 4.05975 20.305ZM14.6653 20.305C14.4239 20.305 14.2224 20.2232 14.0608 20.0595C13.8993 19.8958 13.8185 19.6938 13.8185 19.4533V10.495C12.8645 10.1553 12.1023 9.52417 11.532 8.6015C10.9617 7.67883 10.6765 6.58683 10.6765 5.3255C10.6765 3.84483 11.0664 2.58708 11.8463 1.55225C12.6263 0.517416 13.5675 0 14.67 0C15.7727 0 16.7139 0.519166 17.4937 1.5575C18.2736 2.596 18.6635 3.852 18.6635 5.3255C18.6635 6.5845 18.3783 7.67683 17.808 8.6025C17.2378 9.52833 16.4778 10.1679 15.5278 10.5212V19.4533C15.5278 19.6938 15.4443 19.8958 15.2775 20.0595C15.1105 20.2232 14.9064 20.305 14.6653 20.305Z" fill="currentColor"/>
  </symbol>

</svg>
