<svg xmlns="http://www.w3.org/2000/svg" style="display:none">
  <!-- google -->
  <symbol id="icon-google" viewBox="0 0 18 18">
    <path d="M18 8.79024C18 12.9402 15.79 18.0002 9.13 18.0002C4.12461 18.0334 0.03852 14.0055 0 9.00024C0.03852 3.99485 4.12461 -0.0330555 9.13 0.000204506C11.2007 0.00788451 13.2085 0.712375 14.83 2.0002C14.942 2.09173 15.0109 2.22581 15.02 2.3702C15.0206 2.51629 14.963 2.65661 14.86 2.7602C14.209 3.3554 13.5882 3.98285 13 4.6402C12.8289 4.8285 12.5422 4.85456 12.34 4.7002C11.4161 4.01648 10.2888 3.66418 9.14 3.7002C6.18528 3.7002 3.79 6.09548 3.79 9.05024C3.79 12.0049 6.18528 14.4002 9.14 14.4002C12.14 14.4002 13.41 13.1202 14.07 10.8502H9.5C9.2239 10.8502 9 10.6263 9 10.3502V7.70024C9 7.42404 9.2239 7.20024 9.5 7.20024H17.5C17.7302 7.19874 17.9244 7.37135 17.95 7.60024C17.9871 7.99575 18.0038 8.39294 18 8.79024Z" fill="currentColor"/>
  </symbol>
  <!-- chevron-down -->
  <symbol id="icon-chevron-down" viewBox="0 0 12 7">
    <path d="M0.876953 0.5C0.977777 0.5 1.05475 0.530412 1.13281 0.608398L5.43555 4.93555L5.78906 5.29102L10.4717 0.608398C10.5493 0.5308 10.6158 0.50883 10.6963 0.511719C10.7906 0.515167 10.872 0.547734 10.958 0.633789C11.0361 0.711877 11.0664 0.788789 11.0664 0.889648C11.0663 0.990272 11.0359 1.06658 10.958 1.14453L6.03906 6.06348C5.9849 6.11764 5.94222 6.14356 5.91406 6.15527C5.87854 6.17004 5.83866 6.17869 5.79004 6.17871C5.76558 6.17871 5.74323 6.17591 5.72266 6.17188L5.66504 6.15527L5.6123 6.125C5.59155 6.11053 5.56793 6.09039 5.54102 6.06348L0.59668 1.12012C0.522843 1.04628 0.496654 0.97665 0.5 0.881836C0.503794 0.774532 0.53981 0.690659 0.62207 0.608398C0.699995 0.530589 0.776363 0.500076 0.876953 0.5Z" fill="currentColor" stroke="currentColor"/>
  </symbol>
  <!-- chevron-up -->
  <symbol id="icon-chevron-up" viewBox="0 0 12 7">
    <path d="M5.77637 0.5C5.87021 0.5 5.94626 0.52829 6.02637 0.608398L10.9697 5.55273C11.0517 5.63472 11.0781 5.7086 11.0781 5.7959C11.0781 5.88314 11.0517 5.95712 10.9697 6.03906C10.8917 6.11706 10.8147 6.14746 10.7139 6.14746C10.6133 6.14738 10.5369 6.11689 10.459 6.03906L10.458 6.03809L6.12891 1.73438L5.77539 1.38281L1.09473 6.06348C1.01698 6.14122 0.950758 6.16309 0.870117 6.16016C0.775851 6.15671 0.694454 6.12512 0.608398 6.03906C0.530288 5.96094 0.5 5.8841 0.5 5.7832C0.500009 5.68232 0.530285 5.60546 0.608398 5.52734L5.52734 0.608398C5.60734 0.528399 5.6827 0.500077 5.77637 0.5Z" fill="currentColor" stroke="currentColor"/>
  </symbol>
  <!-- logout -->
  <symbol id="icon-logout" viewBox="0 0 18 19">
    <path d="M1.70325 18.305C1.24325 18.305 0.844417 18.1361 0.50675 17.7983C0.168917 17.4606 0 17.0617 0 16.6017V1.70925C0 1.24758 0.168917 0.847332 0.50675 0.508499C0.844417 0.169499 1.24325 0 1.70325 0H8.30875C8.54908 0 8.75108 0.0834154 8.91475 0.250249C9.07842 0.417249 9.16025 0.621333 9.16025 0.8625C9.16025 1.10383 9.07842 1.30533 8.91475 1.467C8.75108 1.6285 8.54908 1.70925 8.30875 1.70925H1.70325V16.6017H8.30875C8.54908 16.6017 8.75108 16.684 8.91475 16.8485C9.07842 17.013 9.16025 17.2161 9.16025 17.4577C9.16025 17.6994 9.07842 17.901 8.91475 18.0625C8.75108 18.2242 8.54908 18.305 8.30875 18.305H1.70325ZM15.0412 10.0072H6.96525C6.72492 10.0072 6.52292 9.92492 6.35925 9.76025C6.19558 9.59575 6.11375 9.39267 6.11375 9.151C6.11375 8.9095 6.19558 8.70792 6.35925 8.54625C6.52292 8.38458 6.72492 8.30375 6.96525 8.30375H14.9912L13.068 6.3805C12.898 6.20967 12.8172 6.00958 12.8255 5.78025C12.8338 5.55075 12.923 5.352 13.093 5.184C13.2628 5.01217 13.4653 4.92725 13.7003 4.92925C13.9351 4.93125 14.1388 5.01717 14.3115 5.187L17.7083 8.58375C17.8741 8.75508 17.957 8.95433 17.957 9.1815C17.957 9.40867 17.8741 9.60725 17.7083 9.77725L14.3365 13.149C14.1698 13.3188 13.9718 13.4006 13.7423 13.3942C13.5126 13.3879 13.3096 13.2998 13.1332 13.13C12.9697 12.96 12.8869 12.7572 12.8847 12.5215C12.8826 12.2857 12.9687 12.0823 13.143 11.9115L15.0412 10.0072Z" fill="currentColor"/>
  </symbol>
  <!-- calendar -->
  <symbol id="icon-calendar" viewBox="0 0 19 21">
    <path d="M6.00575 14.4412C5.32542 14.4412 4.75192 14.2064 4.28525 13.7367C3.81858 13.2671 3.58525 12.6921 3.58525 12.0117C3.58525 11.3314 3.82017 10.7579 4.29 10.2912C4.75967 9.82458 5.33467 9.59125 6.015 9.59125C6.69517 9.59125 7.26858 9.82617 7.73525 10.296C8.20192 10.7657 8.43525 11.3407 8.43525 12.021C8.43525 12.7012 8.20042 13.2746 7.73075 13.7412C7.26108 14.2079 6.68608 14.4412 6.00575 14.4412ZM1.70325 20.305C1.24325 20.305 0.844417 20.1361 0.50675 19.7983C0.168917 19.4606 0 19.0617 0 18.6017V3.20925C0 2.74758 0.168917 2.34733 0.50675 2.0085C0.844417 1.6695 1.24325 1.5 1.70325 1.5H3.2745V0.853749C3.2745 0.614582 3.3575 0.412499 3.5235 0.247499C3.68967 0.0824991 3.89167 0 4.1295 0C4.37433 0 4.58083 0.0824991 4.749 0.247499C4.91717 0.412499 5.00125 0.614582 5.00125 0.853749V1.5H13.2977V0.853749C13.2977 0.614582 13.3808 0.412499 13.547 0.247499C13.713 0.0824991 13.9149 0 14.1528 0C14.3977 0 14.6042 0.0824991 14.7722 0.247499C14.9404 0.412499 15.0245 0.614582 15.0245 0.853749V1.5H16.5957C17.0574 1.5 17.4577 1.6695 17.7965 2.0085C18.1355 2.34733 18.305 2.74758 18.305 3.20925V18.6017C18.305 19.0617 18.1355 19.4606 17.7965 19.7983C17.4577 20.1361 17.0574 20.305 16.5957 20.305H1.70325ZM1.70325 18.6017H16.5957V7.9055H1.70325V18.6017ZM1.70325 6.4055H16.5957V3.20925H1.70325V6.4055Z" fill="currentColor"/>
  </symbol>
  <!-- branch -->
  <symbol id="icon-branch" viewBox="0 0 21 19">
    <path d="M17.2875 18.275C16.5603 18.275 15.9326 18.0589 15.4043 17.6268C14.8761 17.1944 14.5433 16.6766 14.406 16.0732H9.2125C8.09933 16.0732 7.17758 15.7078 6.44725 14.977C5.71692 14.246 5.35175 13.3235 5.35175 12.2095C5.35175 11.0995 5.71692 10.179 6.44725 9.448C7.17758 8.71717 8.09933 8.35175 9.2125 8.35175H11.1375C11.8077 8.35175 12.3568 8.13758 12.7848 7.70925C13.2128 7.28108 13.4268 6.73175 13.4268 6.06125C13.4268 5.39075 13.2128 4.84183 12.7848 4.4145C12.3568 3.987 11.8077 3.77325 11.1375 3.77325H5.875C5.717 4.37658 5.37808 4.89442 4.85825 5.32675C4.33825 5.75892 3.71467 5.975 2.9875 5.975C2.152 5.975 1.44517 5.68592 0.867 5.10775C0.289 4.52958 0 3.82275 0 2.98725C0 2.15158 0.289 1.44475 0.867 0.86675C1.44517 0.288916 2.152 0 2.9875 0C3.71467 0 4.33825 0.216083 4.85825 0.64825C5.37808 1.08058 5.717 1.59842 5.875 2.20175H11.1375C12.2495 2.20175 13.171 2.56717 13.902 3.298C14.6328 4.029 14.9983 4.9505 14.9983 6.0625C14.9983 7.1745 14.6328 8.096 13.902 8.827C13.171 9.55783 12.2495 9.92325 11.1375 9.92325H9.2125C8.54117 9.92325 7.99183 10.137 7.5645 10.5645C7.137 10.9918 6.92325 11.5402 6.92325 12.2095C6.92325 12.8828 7.137 13.4332 7.5645 13.8605C7.99183 14.288 8.54117 14.5017 9.2125 14.5017H14.406C14.56 13.8984 14.8969 13.3806 15.4167 12.9482C15.9367 12.5161 16.5603 12.3 17.2875 12.3C18.123 12.3 18.8298 12.5891 19.408 13.1673C19.986 13.7454 20.275 14.4523 20.275 15.2878C20.275 16.1234 19.986 16.8302 19.408 17.4083C18.8298 17.9861 18.123 18.275 17.2875 18.275ZM2.9875 4.3375C3.37083 4.3375 3.69167 4.20833 3.95 3.95C4.20833 3.69167 4.3375 3.37083 4.3375 2.9875C4.3375 2.60417 4.20833 2.28333 3.95 2.025C3.69167 1.76667 3.37083 1.6375 2.9875 1.6375C2.60417 1.6375 2.28333 1.76667 2.025 2.025C1.76667 2.28333 1.6375 2.60417 1.6375 2.9875C1.6375 3.37083 1.76667 3.69167 2.025 3.95C2.28333 4.20833 2.60417 4.3375 2.9875 4.3375Z" fill="currentColor"/>
  </symbol>
  <!-- book -->
  <symbol id="icon-book" viewBox="0 0 17 21">
    <path d="M1.6615 14.1077C1.89867 13.9561 2.15608 13.8408 2.43375 13.762C2.71142 13.683 3.00942 13.6435 3.32775 13.6435H4.1615V1.6615H3.32775C2.85958 1.6615 2.46483 1.82317 2.1435 2.1465C1.82217 2.46983 1.6615 2.86558 1.6615 3.33375V14.1077ZM5.82275 13.6435H14.6435V1.6615H5.82275V13.6435ZM3.32775 20.305C2.40658 20.305 1.62167 19.9807 0.973 19.332C0.324333 18.6833 0 17.8984 0 16.9772V3.33375C0 2.41092 0.324333 1.62458 0.973 0.97475C1.62167 0.324916 2.40658 0 3.32775 0H14.5957C15.0699 0 15.4733 0.166332 15.806 0.498999C16.1387 0.831666 16.305 1.23508 16.305 1.70925V14.644C16.305 14.807 16.2633 14.9548 16.18 15.0872C16.0967 15.2198 15.99 15.3129 15.86 15.3667C15.5552 15.4929 15.3161 15.6984 15.1427 15.9832C14.9694 16.2682 14.8827 16.597 14.8827 16.9695C14.8827 17.342 14.969 17.6697 15.1415 17.9525C15.314 18.2355 15.5524 18.4385 15.8567 18.5615C16.0007 18.6242 16.1115 18.7335 16.189 18.8895C16.2663 19.0455 16.305 19.2346 16.305 19.4567V19.4845C16.305 19.7113 16.2244 19.9047 16.0632 20.0647C15.9022 20.2249 15.7049 20.305 15.4712 20.305H3.32775ZM3.31625 18.6435H13.6662C13.5256 18.4065 13.4162 18.1447 13.3382 17.8582C13.2602 17.5716 13.2212 17.2782 13.2212 16.978C13.2212 16.6602 13.2607 16.3622 13.3395 16.0842C13.4185 15.8063 13.5357 15.5465 13.6912 15.305H3.318C2.86033 15.305 2.46983 15.4667 2.1465 15.79C1.82317 16.1133 1.6615 16.509 1.6615 16.977C1.6615 17.4413 1.82317 17.8352 2.1465 18.1585C2.46983 18.4818 2.85975 18.6435 3.31625 18.6435Z" fill="currentColor"/>
  </symbol>
  <!-- profile -->
  <symbol id="icon-profile" viewBox="0 0 21 21">
    <path d="M3.7235 15.7147C4.7695 14.9894 5.80717 14.4329 6.8365 14.0452C7.86583 13.6576 8.971 13.4637 10.152 13.4637C11.3332 13.4637 12.4436 13.6591 13.4832 14.0498C14.5227 14.4406 15.5618 14.9956 16.6005 15.7147C17.326 14.8107 17.8399 13.9095 18.1423 13.011C18.4446 12.1123 18.5957 11.1605 18.5957 10.1555C18.5957 7.75783 17.7876 5.75067 16.1712 4.134C14.5549 2.5175 12.548 1.70925 10.1505 1.70925C7.75317 1.70925 5.74592 2.5175 4.12875 4.134C2.51175 5.75067 1.70325 7.75783 1.70325 10.1555C1.70325 11.1602 1.85767 12.1113 2.1665 13.009C2.47533 13.9067 2.99433 14.8086 3.7235 15.7147ZM10.1448 10.9472C9.16858 10.9472 8.34858 10.6136 7.68475 9.94625C7.02075 9.27875 6.68875 8.45825 6.68875 7.48475C6.68875 6.51125 7.02225 5.69133 7.68925 5.025C8.35642 4.35867 9.17808 4.0255 10.1543 4.0255C11.1304 4.0255 11.9504 4.36025 12.6143 5.02975C13.2783 5.69908 13.6102 6.5205 13.6102 7.494C13.6102 8.46767 13.2767 9.28667 12.6097 9.951C11.9426 10.6152 11.1209 10.9472 10.1448 10.9472ZM10.1578 20.305C8.76558 20.305 7.4525 20.0389 6.2185 19.5068C4.98433 18.9746 3.9055 18.2468 2.982 17.3235C2.05833 16.4 1.33042 15.323 0.79825 14.0925C0.266083 12.8622 0 11.5474 0 10.1482C0 8.75375 0.2665 7.44242 0.7995 6.21425C1.3325 4.98592 2.06017 3.91067 2.9825 2.9885C3.90467 2.06617 4.98108 1.3375 6.21175 0.802499C7.44242 0.267499 8.75742 0 10.1568 0C11.5513 0 12.8626 0.267499 14.0908 0.802499C15.3191 1.3375 16.3943 2.06617 17.3165 2.9885C18.2388 3.91067 18.9675 4.98633 19.5025 6.2155C20.0375 7.44467 20.305 8.75525 20.305 10.1473C20.305 11.5394 20.0375 12.8527 19.5025 14.0872C18.9675 15.3219 18.2388 16.4003 17.3165 17.3225C16.3943 18.2448 15.3187 18.9725 14.0895 19.5055C12.8603 20.0385 11.5498 20.305 10.1578 20.305ZM10.1495 18.6017C11.0542 18.6017 11.9341 18.4724 12.7893 18.2138C13.6443 17.9549 14.4967 17.4982 15.3468 16.8435C14.4928 16.2475 13.6361 15.7962 12.7768 15.4895C11.9173 15.1828 11.0415 15.0295 10.1495 15.0295C9.2575 15.0295 8.38275 15.1828 7.52525 15.4895C6.66792 15.7962 5.81225 16.2475 4.95825 16.8435C5.80825 17.4982 6.65975 17.9549 7.51275 18.2138C8.36592 18.4724 9.24483 18.6017 10.1495 18.6017ZM10.1495 9.3755C10.7037 9.3755 11.1571 9.20033 11.5097 8.85C11.8624 8.49967 12.0388 8.04617 12.0388 7.4895C12.0388 6.93283 11.8624 6.47833 11.5097 6.126C11.1571 5.7735 10.7037 5.59725 10.1495 5.59725C9.59533 5.59725 9.14192 5.7735 8.78925 6.126C8.43658 6.47833 8.26025 6.93283 8.26025 7.4895C8.26025 8.04617 8.43658 8.49967 8.78925 8.85C9.14192 9.20033 9.59533 9.3755 10.1495 9.3755Z" fill="currentColor"/>
  </symbol>
  <!-- close -->
  <symbol id="icon-close" viewBox="0 0 14 14">
    <path d="M12.1748 0.5C12.3391 0.5 12.4411 0.548503 12.5215 0.628906C12.6017 0.709215 12.6503 0.810702 12.6504 0.974609C12.6504 1.13881 12.6018 1.2409 12.5215 1.32129L7.26758 6.5752L7.62109 6.92871L12.5215 11.8281C12.6019 11.9085 12.6504 12.0106 12.6504 12.1748C12.6504 12.3391 12.6019 12.4411 12.5215 12.5215C12.4411 12.6019 12.3391 12.6504 12.1748 12.6504C12.0106 12.6504 11.9085 12.6019 11.8281 12.5215L6.92871 7.62109L6.5752 7.26758L1.32129 12.5215C1.2409 12.6018 1.13881 12.6504 0.974609 12.6504C0.810702 12.6503 0.709215 12.6017 0.628906 12.5215C0.548503 12.4411 0.5 12.3391 0.5 12.1748C0.500038 12.0106 0.548535 11.9085 0.628906 11.8281L5.88184 6.5752L5.52832 6.22168L0.628906 1.32129C0.548504 1.24089 0.5 1.13888 0.5 0.974609C0.500076 0.810568 0.548567 0.709245 0.628906 0.628906C0.709245 0.548567 0.810568 0.500076 0.974609 0.5C1.13888 0.5 1.24089 0.548504 1.32129 0.628906L6.22168 5.52832L6.5752 5.88184L11.8281 0.628906C11.9085 0.548535 12.0106 0.500038 12.1748 0.5Z" fill="currentColor" stroke="currentColor"/>
  </symbol>
  <!-- cutlery / restaurant -->
  <symbol id="icon-cutlery" viewBox="0 0 19 21">
    <path d="M4.05975 20.305C3.81808 20.305 3.61642 20.2232 3.45475 20.0595C3.29325 19.8958 3.2125 19.6938 3.2125 19.4533V10.9265C2.21467 10.6763 1.42975 10.2031 0.85775 9.50675C0.285917 8.81042 0 7.99567 0 7.0625V0.833749C0 0.600083 0.0804167 0.40275 0.24125 0.24175C0.402083 0.0805829 0.599167 0 0.8325 0C1.06583 0 1.26233 0.0805829 1.422 0.24175C1.5815 0.40275 1.66125 0.600083 1.66125 0.833749V6.211H3.23625V0.833749C3.23625 0.600083 3.31675 0.40275 3.47775 0.24175C3.63858 0.0805829 3.83567 0 4.069 0C4.30233 0 4.49875 0.0805829 4.65825 0.24175C4.81792 0.40275 4.89775 0.600083 4.89775 0.833749V6.211H6.49775V0.833749C6.49775 0.600083 6.57817 0.40275 6.739 0.24175C6.9 0.0805829 7.09717 0 7.3305 0C7.56383 0 7.76025 0.0805829 7.91975 0.24175C8.07942 0.40275 8.15925 0.600083 8.15925 0.833749V7.05075C8.15925 7.98758 7.87125 8.80117 7.29525 9.4915C6.71942 10.182 5.92625 10.6581 4.91575 10.9197V19.4533C4.91575 19.6938 4.8335 19.8958 4.669 20.0595C4.5045 20.2232 4.30142 20.305 4.05975 20.305ZM14.6653 20.305C14.4239 20.305 14.2224 20.2232 14.0608 20.0595C13.8993 19.8958 13.8185 19.6938 13.8185 19.4533V10.495C12.8645 10.1553 12.1023 9.52417 11.532 8.6015C10.9617 7.67883 10.6765 6.58683 10.6765 5.3255C10.6765 3.84483 11.0664 2.58708 11.8463 1.55225C12.6263 0.517416 13.5675 0 14.67 0C15.7727 0 16.7139 0.519166 17.4937 1.5575C18.2736 2.596 18.6635 3.852 18.6635 5.3255C18.6635 6.5845 18.3783 7.67683 17.808 8.6025C17.2378 9.52833 16.4778 10.1679 15.5278 10.5212V19.4533C15.5278 19.6938 15.4443 19.8958 15.2775 20.0595C15.1105 20.2232 14.9064 20.305 14.6653 20.305Z" fill="currentColor"/>
  </symbol>
  <!-- Burger menu -->
  <symbol id="icon-burger" viewBox="0 0 32 32">
    <path d="M5.333 8h21.333v2.667h-21.333v-2.667zM5.333 14.667h21.333v2.667h-21.333v-2.667zM5.333 21.333h21.333v2.667h-21.333v-2.667z"></path>
  </symbol>

  <!-- Emotion/Star  -->
  <symbol id="emotion-star" width="24" height="24" viewBox="0 0 24 24" fill="none" xmlns="http://www.w3.org/2000/svg">
    <path d="M19.2389 15.0129C19.4117 14.8431 19.6151 14.7582 19.8491 14.7582C20.0831 14.7582 20.2865 14.8431 20.4592 15.0129L21.9864 16.5652C22.1562 16.7359 22.2411 16.9349 22.2411 17.1624C22.2411 17.3899 22.1561 17.5897 21.9859 17.7617C21.8157 17.9335 21.6161 18.0194 21.3871 18.0194C21.1583 18.0194 20.9582 17.9325 20.7869 17.7587L19.2407 16.2314C19.0668 16.0601 18.9799 15.8567 18.9799 15.6212C18.9799 15.3857 19.0662 15.1829 19.2389 15.0129ZM19.8967 3.09394C20.0667 3.26594 20.1516 3.46935 20.1516 3.70419C20.1516 3.93902 20.0667 4.14069 19.8967 4.30919L18.3694 5.84244C18.1957 6.01227 17.9919 6.09719 17.7579 6.09719C17.5237 6.09719 17.3214 6.01177 17.1509 5.84094C16.9771 5.6686 16.8901 5.46485 16.8901 5.22969C16.8901 4.99435 16.9771 4.79244 17.1509 4.62394L18.6971 3.09069C18.869 2.92085 19.0693 2.83594 19.2981 2.83594C19.5271 2.83594 19.7267 2.92194 19.8967 3.09394ZM4.1044 3.09369C4.27523 2.92185 4.47823 2.83594 4.7134 2.83594C4.94873 2.83594 5.15148 2.92085 5.32165 3.09069L6.8549 4.64294C7.02473 4.8146 7.10965 5.01494 7.10965 5.24394C7.10965 5.47294 7.0254 5.67244 6.8569 5.84244C6.68823 6.01227 6.48898 6.09719 6.25915 6.09719C6.02915 6.09719 5.8299 6.01227 5.6614 5.84244L4.10315 4.30919C3.93315 4.13902 3.84815 3.93685 3.84815 3.70269C3.84815 3.46869 3.93357 3.26569 4.1044 3.09369ZM4.76515 15.0144C4.93498 15.1851 5.0199 15.3881 5.0199 15.6234C5.0199 15.8586 4.93498 16.0613 4.76515 16.2314L3.2379 17.7587C3.06657 17.9325 2.86315 18.0194 2.62765 18.0194C2.39215 18.0194 2.1894 17.9349 2.0194 17.7657C1.84957 17.5964 1.76465 17.3971 1.76465 17.1679C1.76465 16.9388 1.84957 16.7379 2.0194 16.5652L3.57165 15.0129C3.74232 14.8431 3.9414 14.7582 4.1689 14.7582C4.3964 14.7582 4.59515 14.8436 4.76515 15.0144ZM8.30415 17.5869L12.0009 15.3669L15.7037 17.6124L14.7134 13.4194L17.9781 10.5749L13.6799 10.1987L11.9999 6.23194L10.3276 10.1734L6.02765 10.5559L9.2949 13.3962L8.30415 17.5869ZM11.9999 17.3582L7.4694 20.0924C7.31623 20.1916 7.15373 20.2334 6.9819 20.2177C6.81023 20.202 6.6589 20.1486 6.5279 20.0574C6.39707 19.9664 6.29857 19.8449 6.2324 19.6927C6.16623 19.5407 6.15373 19.3694 6.1949 19.1787L7.39015 14.0162L3.38565 10.5189C3.23648 10.3901 3.1464 10.2445 3.1154 10.0822C3.0844 9.91985 3.08757 9.76252 3.1249 9.61019C3.16223 9.45769 3.24823 9.32869 3.3829 9.22319C3.5174 9.11752 3.67998 9.05635 3.87065 9.03969L9.1599 8.57419L11.2041 3.69619C11.2746 3.52219 11.3845 3.39277 11.5336 3.30794C11.6828 3.22294 11.8361 3.18044 11.9936 3.18044C12.1511 3.18044 12.3061 3.22294 12.4586 3.30794C12.6111 3.39277 12.7235 3.52219 12.7956 3.69619L14.8444 8.57669L20.1351 9.03969C20.3218 9.05635 20.4824 9.11752 20.6169 9.22319C20.7516 9.32869 20.8376 9.45769 20.8749 9.61019C20.9122 9.76252 20.9164 9.91994 20.8874 10.0824C20.8584 10.2449 20.7692 10.3904 20.6199 10.5189L16.6156 14.0162L17.8106 19.1847C17.848 19.3714 17.8322 19.5402 17.7634 19.6912C17.6946 19.8422 17.5982 19.968 17.4744 20.0687C17.3457 20.1582 17.1955 20.2094 17.0236 20.2222C16.852 20.2349 16.6896 20.1936 16.5364 20.0984L11.9999 17.3582Z" fill="black"/>
  </symbol>

  <!-- Food  -->
  <symbol  id="food"  width="24" height="24" viewBox="0 0 24 24" fill="none" xmlns="http://www.w3.org/2000/svg">
    <path d="M6.73114 22.1487C6.48947 22.1487 6.2878 22.0669 6.12614 21.9032C5.96464 21.7396 5.88389 21.5375 5.88389 21.297V12.7702C4.88605 12.5201 4.10114 12.0468 3.52914 11.3505C2.9573 10.6542 2.67139 9.83942 2.67139 8.90625V2.6775C2.67139 2.44383 2.7518 2.2465 2.91264 2.0855C3.07347 1.92433 3.27055 1.84375 3.50389 1.84375C3.73722 1.84375 3.93372 1.92433 4.09339 2.0855C4.25289 2.2465 4.33264 2.44383 4.33264 2.6775V8.05475H5.90764V2.6775C5.90764 2.44383 5.98814 2.2465 6.14914 2.0855C6.30997 1.92433 6.50705 1.84375 6.74039 1.84375C6.97372 1.84375 7.17014 1.92433 7.32964 2.0855C7.4893 2.2465 7.56914 2.44383 7.56914 2.6775V8.05475H9.16914V2.6775C9.16914 2.44383 9.24955 2.2465 9.41039 2.0855C9.57139 1.92433 9.76855 1.84375 10.0019 1.84375C10.2352 1.84375 10.4316 1.92433 10.5911 2.0855C10.7508 2.2465 10.8306 2.44383 10.8306 2.6775V8.8945C10.8306 9.83133 10.5426 10.6449 9.96664 11.3352C9.3908 12.0257 8.59764 12.5018 7.58714 12.7635V21.297C7.58714 21.5375 7.50489 21.7396 7.34039 21.9032C7.17589 22.0669 6.9728 22.1487 6.73114 22.1487ZM17.3366 22.1487C17.0953 22.1487 16.8938 22.0669 16.7321 21.9032C16.5706 21.7396 16.4899 21.5375 16.4899 21.297V12.3387C15.5359 11.9991 14.7737 11.3679 14.2034 10.4453C13.6331 9.52258 13.3479 8.43058 13.3479 7.16925C13.3479 5.68858 13.7378 4.43083 14.5176 3.396C15.2976 2.36117 16.2389 1.84375 17.3414 1.84375C18.4441 1.84375 19.3853 2.36292 20.1651 3.40125C20.945 4.43975 21.3349 5.69575 21.3349 7.16925C21.3349 8.42825 21.0497 9.52058 20.4794 10.4462C19.9092 11.3721 19.1491 12.0117 18.1991 12.365V21.297C18.1991 21.5375 18.1157 21.7396 17.9489 21.9032C17.7819 22.0669 17.5778 22.1487 17.3366 22.1487Z" fill="black"/>
  </symbol>
  <!-- Activity -->
  <symbol  id="activity"  width="24" height="24" viewBox="0 0 24 24" fill="none" xmlns="http://www.w3.org/2000/svg">
    <path d="M6.72983 7.91681L3.75257 10.8938C3.58657 11.0598 3.39466 11.1418 3.17682 11.1398C2.95882 11.1378 2.76682 11.0538 2.60082 10.8878C2.45166 10.7386 2.37391 10.5509 2.36757 10.3246C2.36124 10.0982 2.43266 9.90215 2.58182 9.73631L3.42207 8.87706L2.62482 8.07381C2.45482 7.90381 2.36982 7.7039 2.36982 7.47406C2.36982 7.24423 2.45482 7.04431 2.62482 6.87431L4.15907 5.34006L3.71182 4.89881C3.53782 4.72881 3.45082 4.5289 3.45082 4.29906C3.45082 4.06923 3.53582 3.87131 3.70582 3.70531C3.85899 3.54798 4.05374 3.46614 4.29007 3.45981C4.52624 3.45348 4.72932 3.52698 4.89932 3.68031L5.36557 4.13356L6.87483 2.62431C7.04483 2.45431 7.24474 2.36931 7.47457 2.36931C7.70441 2.36931 7.90632 2.45431 8.08033 2.62431L8.87757 3.42156L9.74283 2.57531C9.90866 2.42614 10.1016 2.35156 10.3216 2.35156C10.5416 2.35156 10.7325 2.43248 10.8943 2.59431C11.0603 2.76431 11.1433 2.95831 11.1433 3.17631C11.1433 3.39415 11.0603 3.58606 10.8943 3.75206L7.92307 6.72331L17.2758 16.0761L20.2471 13.1048C20.4131 12.9388 20.606 12.8558 20.8258 12.8558C21.0458 12.8558 21.2388 12.9388 21.4048 13.1048C21.554 13.254 21.6317 13.4427 21.6381 13.6711C21.6444 13.8994 21.573 14.0945 21.4238 14.2563L20.5776 15.1216L21.3748 15.9188C21.5448 16.0928 21.6298 16.2947 21.6298 16.5246C21.6298 16.7544 21.5448 16.9543 21.3748 17.1243L19.8156 18.6836L20.2688 19.1248C20.4388 19.2948 20.5238 19.4947 20.5238 19.7246C20.5238 19.9544 20.4388 20.1523 20.2688 20.3183C20.099 20.4883 19.9001 20.5733 19.6721 20.5733C19.4442 20.5733 19.2453 20.4863 19.0753 20.3123L18.6341 19.8651L17.1248 21.3743C16.9548 21.5443 16.7549 21.6293 16.5251 21.6293C16.2952 21.6293 16.0953 21.5443 15.9253 21.3743L15.1221 20.5771L14.2568 21.4233C14.091 21.5725 13.8991 21.6461 13.6811 21.6441C13.4631 21.6421 13.2732 21.5601 13.1113 21.3983C12.9413 21.2323 12.8563 21.0403 12.8563 20.8223C12.8563 20.6045 12.9413 20.4106 13.1113 20.2406L16.0823 17.2693L6.72983 7.91681Z" fill="black"/>
  </symbol>
  
  <!-- Rest  -->
  <symbol  id="rest"  width="24" height="24" viewBox="0 0 24 24" fill="none" xmlns="http://www.w3.org/2000/svg">
    <path d="M5.0635 21.4485C4.836 21.4485 4.63733 21.3621 4.4675 21.1893C4.2975 21.0166 4.2125 20.8161 4.2125 20.5878V19.475H3.8875C3.08517 19.475 2.40333 19.1943 1.842 18.6328C1.28067 18.0714 1 17.3897 1 16.5875V10.4875C1 9.62817 1.25733 8.96708 1.772 8.50425C2.28667 8.04125 2.896 7.79583 3.6 7.768V5.7375C3.6 4.93267 3.855 4.27517 4.365 3.765C4.87517 3.255 5.53267 3 6.3375 3H17.9625C18.7673 3 19.4207 3.255 19.9225 3.765C20.4242 4.27517 20.675 4.93267 20.675 5.7375V7.768C21.379 7.79583 21.9883 8.04125 22.503 8.50425C23.0177 8.96708 23.275 9.62817 23.275 10.4875V16.5875C23.275 17.3897 22.9942 18.0714 22.4328 18.6328C21.8714 19.1943 21.1897 19.475 20.3875 19.475H20.0625V20.5878C20.0625 20.8161 19.9775 21.0166 19.8075 21.1893C19.6377 21.3621 19.4387 21.4485 19.2108 21.4485C18.9829 21.4485 18.7841 21.3621 18.6143 21.1893C18.4443 21.0166 18.3593 20.8161 18.3593 20.5878V19.475H5.92175V20.5895C5.92175 20.8182 5.83558 21.0185 5.66325 21.1905C5.49108 21.3625 5.29117 21.4485 5.0635 21.4485ZM3.8875 17.7718H20.3875C20.7022 17.7718 20.9783 17.6524 21.2157 17.4137C21.4531 17.1751 21.5718 16.8997 21.5718 16.5875V10.4875C21.5718 10.1757 21.4776 9.92533 21.2893 9.7365C21.1009 9.54767 20.8503 9.45325 20.5373 9.45325C20.2241 9.45325 19.9735 9.54767 19.7855 9.7365C19.5973 9.92533 19.5033 10.1757 19.5033 10.4875V14.9532H4.77175V10.4875C4.77175 10.1757 4.67758 9.92533 4.48925 9.7365C4.30092 9.54767 4.05025 9.45325 3.73725 9.45325C3.42408 9.45325 3.1735 9.54767 2.9855 9.7365C2.79733 9.92533 2.70325 10.1757 2.70325 10.4875V16.5875C2.70325 16.8997 2.82258 17.1751 3.06125 17.4137C3.29992 17.6524 3.57533 17.7718 3.8875 17.7718ZM6.475 13.25H17.8V10.4875C17.8 9.9555 17.9214 9.50617 18.1643 9.1395C18.4073 8.773 18.6764 8.4805 18.9718 8.262V5.7375C18.9718 5.42283 18.8781 5.17175 18.6908 4.98425C18.5033 4.79692 18.2543 4.70325 17.944 4.70325H6.331C6.02317 4.70325 5.77492 4.79692 5.58625 4.98425C5.39758 5.17175 5.30325 5.42283 5.30325 5.7375V8.262C5.59858 8.4805 5.86775 8.773 6.11075 9.1395C6.35358 9.50617 6.475 9.9555 6.475 10.4875V13.25Z" fill="black"/>
  </symbol>


  <!-- Leleka logo -->
  <symbol id="icon-leleka-logo" viewBox="0 0 103 32">
    <path fill="#33adc1" style="fill: var(--color1, #33adc1)" d="M31.596 15.798c0 8.725-7.073 15.798-15.798 15.798-0.328 0-0.653-0.010-0.975-0.030-1.352-0.082-2.658-0.335-3.897-0.736-0.471-0.152-0.933-0.327-1.384-0.521-5.614-2.423-9.543-8.008-9.543-14.511 0-8.725 7.073-15.798 15.798-15.798s15.798 7.073 15.798 15.798z"></path>
    <path fill="#eae0d3" style="fill: var(--color2, #eae0d3)" d="M14.823 31.566c-1.866-0.113-3.645-0.551-5.28-1.257 6.118-8.248-4.473-16.104-4.473-16.104l5.34-1.318c0-0 11.428 6.971 4.414 18.679z"></path>
    <path fill="#d6c8b0" style="fill: var(--color3, #d6c8b0)" d="M10.926 30.83c-0.471-0.152-0.933-0.327-1.384-0.521 6.118-8.248-4.473-16.104-4.473-16.104l1.543-0.381c0.374 0.28 0.898 0.644 1.432 1.144 2.786 2.602 6.827 8.139 2.881 15.862z"></path>
    <path fill="#eae0d3" style="fill: var(--color2, #eae0d3)" d="M14.221 8.792c0 3.411-2.765 6.176-6.176 6.176s-6.176-2.765-6.176-6.176c0-0.509 0.061-1.004 0.178-1.477s0.287-0.925 0.505-1.348l-2.552-2.552 4.182 0.559-2.145-2.66 4.905 1.401-0.535-2.714c0 0 4.267 2.36 6.294 4.734 0.154 0.176 0.297 0.361 0.43 0.554 0.687 0.996 1.091 2.203 1.091 3.505z"></path>
    <path fill="#2f373b" style="fill: var(--color4, #2f373b)" d="M11.365 7.532c0 0.835-0.677 1.513-1.512 1.513s-1.513-0.677-1.513-1.513c0-0.835 0.677-1.513 1.513-1.513s1.512 0.677 1.512 1.513z"></path>
    <path fill="#ff648d" style="fill: var(--color5, #ff648d)" d="M25.542 8.53c-0.621 0.324-1.275 0.251-1.801 0.077-0.614-0.203-1.052-0.542-1.052-0.542s-2.212-2.171-0.51-3.116c0.514-0.285 0.93-0.284 1.26-0.142h0.001c0.764 0.328 1.071 1.402 1.071 1.402s0.616-1.597 1.978-1.113c1.362 0.483 0.399 2.731-0.947 3.435z"></path>
    <path fill="#ea2f69" style="fill: var(--color6, #ea2f69)" d="M23.741 8.606c-0.614-0.203-1.052-0.542-1.052-0.542s-2.212-2.171-0.51-3.116c0.514-0.285 0.93-0.284 1.26-0.142-0.753-0.042-0.777 2.733 0.302 3.801z"></path>
    <path fill="#fff" style="fill: var(--color7, #fff)" d="M10.934 7.049c0 0.261-0.212 0.473-0.473 0.473s-0.473-0.212-0.473-0.473c0-0.261 0.212-0.472 0.473-0.472s0.473 0.212 0.473 0.472z"></path>
    <path fill="#ff648d" style="fill: var(--color5, #ff648d)" d="M23.243 9.261c0 2.304-6.271 9.3-2.175 12.199 1.024 0.725 2.154 0.961 3.274 0.908 1.119 0.053 2.25-0.183 3.274-0.908 4.096-2.899-2.175-9.895-2.175-12.199z"></path>
    <path fill="#ea2f69" style="fill: var(--color6, #ea2f69)" d="M24.173 22.373c-1.065 0.023-2.132-0.225-3.105-0.913-4.097-2.899 2.175-9.895 2.175-12.199h0.672c0 2.304-2.437 9.3-0.845 12.199 0.346 0.631 0.724 0.892 1.103 0.913z"></path>
    <path fill="#ea2f69" style="fill: var(--color6, #ea2f69)" d="M24.173 22.373c0.056-0.001 0.112-0.003 0.169-0.005-0.056 0.007-0.112 0.009-0.169 0.005z"></path>
    <path fill="#ea2f69" style="fill: var(--color6, #ea2f69)" d="M24.51 22.373c-0.056 0.004-0.112 0.002-0.168-0.005 0.056 0.002 0.112 0.005 0.168 0.005z"></path>
    <path fill="#ffd62c" style="fill: var(--color8, #ffd62c)" d="M28.465 8.855l-15.63 2.584c0 0-0.546-0.827-0.744-1.924-0.177-0.978-0.077-2.171 0.933-3.181l15.441 2.521z"></path>
    <path fill="#ffb92e" style="fill: var(--color9, #ffb92e)" d="M28.465 8.855l-15.63 2.584c0 0-0.546-0.827-0.744-1.924l16.374-0.66z"></path>
    <path fill="#d6c8b0" style="fill: var(--color3, #d6c8b0)" d="M8.045 14.968c-3.411 0-6.176-2.765-6.176-6.176 0-0.509 0.061-1.004 0.178-1.477s0.287-0.925 0.505-1.348l-2.552-2.552 4.182 0.559-2.145-2.66 5 2.815c0 0-3.088 1.135-3.088 4.727s4.097 6.113 4.097 6.113z"></path>
    <path fill="#000" style="fill: var(--color10, #000)" d="M96.234 22.674c-0.853 0-1.617-0.21-2.295-0.631-0.677-0.432-1.215-1.010-1.612-1.734-0.385-0.736-0.578-1.565-0.578-2.488s0.21-1.752 0.631-2.488c0.432-0.736 1.010-1.314 1.734-1.734 0.736-0.432 1.559-0.648 2.47-0.648s1.729 0.216 2.453 0.648c0.724 0.421 1.296 0.999 1.717 1.734 0.432 0.736 0.648 1.565 0.648 2.488h-0.683c0 0.923-0.199 1.752-0.596 2.488-0.385 0.724-0.917 1.302-1.594 1.734-0.677 0.42-1.442 0.631-2.295 0.631zM96.585 21.097c0.596 0 1.127-0.14 1.594-0.42 0.467-0.292 0.835-0.683 1.104-1.174 0.269-0.502 0.403-1.063 0.403-1.682 0-0.631-0.134-1.191-0.403-1.682-0.269-0.502-0.637-0.893-1.104-1.174-0.467-0.292-0.999-0.438-1.594-0.438-0.584 0-1.115 0.146-1.594 0.438-0.467 0.28-0.841 0.671-1.121 1.174-0.269 0.491-0.403 1.051-0.403 1.682 0 0.619 0.134 1.18 0.403 1.682 0.28 0.49 0.654 0.882 1.121 1.174 0.479 0.28 1.010 0.42 1.594 0.42zM100.509 22.621c-0.257 0-0.473-0.082-0.648-0.245-0.163-0.175-0.245-0.391-0.245-0.648v-2.68l0.333-1.857 1.454 0.631v3.907c0 0.257-0.088 0.473-0.263 0.648-0.163 0.164-0.374 0.245-0.631 0.245z"></path>
    <path fill="#000" style="fill: var(--color10, #000)" d="M90.468 22.394c-0.152 0.14-0.368 0.21-0.648 0.21-0.269-0.012-0.479-0.093-0.631-0.245l-4.257-4.572 4.012-4.485c0.152-0.164 0.362-0.257 0.631-0.28 0.28-0.023 0.496 0.035 0.648 0.175 0.175 0.164 0.274 0.35 0.298 0.561 0.023 0.199-0.041 0.38-0.193 0.543l-3.171 3.399 3.364 3.609c0.152 0.152 0.228 0.333 0.228 0.543 0 0.199-0.093 0.38-0.28 0.543zM83.531 22.621c-0.257 0-0.461-0.082-0.613-0.245-0.152-0.175-0.228-0.391-0.228-0.648v-7.813c0-0.269 0.076-0.485 0.228-0.648s0.356-0.245 0.613-0.245c0.269 0 0.485 0.082 0.648 0.245 0.175 0.163 0.263 0.38 0.263 0.648v2.926h2.242v1.647h-2.242v3.241c0 0.257-0.088 0.473-0.263 0.648-0.163 0.163-0.379 0.245-0.648 0.245z"></path>
    <path fill="#000" style="fill: var(--color10, #000)" d="M76.136 22.674c-0.969 0-1.834-0.204-2.593-0.613-0.747-0.42-1.337-0.993-1.769-1.717-0.42-0.736-0.631-1.577-0.631-2.523 0-0.958 0.199-1.799 0.596-2.523 0.409-0.736 0.969-1.308 1.682-1.717 0.712-0.42 1.53-0.631 2.453-0.631 0.911 0 1.693 0.204 2.348 0.613 0.654 0.397 1.15 0.952 1.489 1.664 0.35 0.701 0.525 1.513 0.525 2.435 0 0.222-0.076 0.409-0.228 0.561-0.152 0.14-0.345 0.21-0.578 0.21h-7.060v-1.401h7.007l-0.718 0.49c-0.012-0.584-0.128-1.104-0.35-1.559-0.222-0.467-0.537-0.835-0.946-1.104s-0.905-0.403-1.489-0.403c-0.666 0-1.238 0.146-1.717 0.438-0.467 0.292-0.823 0.695-1.069 1.209-0.245 0.502-0.368 1.074-0.368 1.717s0.146 1.215 0.438 1.717c0.292 0.502 0.695 0.899 1.209 1.191s1.104 0.438 1.769 0.438c0.362 0 0.73-0.064 1.104-0.193 0.385-0.14 0.695-0.298 0.928-0.473 0.175-0.129 0.362-0.193 0.561-0.193 0.21-0.012 0.391 0.047 0.543 0.175 0.199 0.175 0.304 0.368 0.315 0.578s-0.082 0.391-0.28 0.543c-0.397 0.315-0.893 0.572-1.489 0.771-0.584 0.199-1.145 0.298-1.682 0.298z"></path>
    <path fill="#000" style="fill: var(--color10, #000)" d="M64.768 13.038c0.175 0 0.333 0.047 0.473 0.14s0.251 0.239 0.333 0.438l3.609 7.831c0.105 0.234 0.117 0.444 0.035 0.631-0.082 0.175-0.222 0.309-0.42 0.403-0.257 0.117-0.479 0.146-0.666 0.088s-0.345-0.204-0.473-0.438l-3.293-7.48h0.893l-3.399 7.48c-0.105 0.222-0.263 0.368-0.473 0.438-0.199 0.058-0.42 0.029-0.666-0.088-0.222-0.105-0.38-0.245-0.473-0.42-0.082-0.175-0.064-0.38 0.053-0.613l3.626-7.831c0.175-0.385 0.456-0.578 0.841-0.578z"></path>
    <path fill="#000" style="fill: var(--color10, #000)" d="M54.623 22.674c-0.969 0-1.834-0.204-2.593-0.613-0.747-0.42-1.337-0.993-1.769-1.717-0.421-0.736-0.631-1.577-0.631-2.523 0-0.958 0.199-1.799 0.596-2.523 0.409-0.736 0.969-1.308 1.682-1.717 0.712-0.42 1.53-0.631 2.453-0.631 0.911 0 1.693 0.204 2.347 0.613 0.654 0.397 1.15 0.952 1.489 1.664 0.35 0.701 0.526 1.513 0.526 2.435 0 0.222-0.076 0.409-0.228 0.561-0.152 0.14-0.345 0.21-0.578 0.21h-7.060v-1.401h7.007l-0.718 0.49c-0.012-0.584-0.129-1.104-0.35-1.559-0.222-0.467-0.537-0.835-0.946-1.104s-0.905-0.403-1.489-0.403c-0.666 0-1.238 0.146-1.717 0.438-0.467 0.292-0.823 0.695-1.069 1.209-0.245 0.502-0.368 1.074-0.368 1.717s0.146 1.215 0.438 1.717c0.292 0.502 0.695 0.899 1.209 1.191s1.104 0.438 1.769 0.438c0.362 0 0.73-0.064 1.104-0.193 0.385-0.14 0.695-0.298 0.929-0.473 0.175-0.129 0.362-0.193 0.561-0.193 0.21-0.012 0.391 0.047 0.543 0.175 0.199 0.175 0.304 0.368 0.315 0.578s-0.082 0.391-0.28 0.543c-0.397 0.315-0.893 0.572-1.489 0.771-0.584 0.199-1.145 0.298-1.682 0.298z"></path>
    <path fill="#000" style="fill: var(--color10, #000)" d="M37.501 22.604c-0.327 0-0.578-0.14-0.753-0.42s-0.193-0.578-0.053-0.893l4.923-11.755c0.175-0.409 0.461-0.613 0.858-0.613 0.42 0 0.707 0.204 0.858 0.613l4.94 11.79c0.128 0.327 0.111 0.625-0.053 0.893-0.152 0.257-0.397 0.385-0.736 0.385-0.175 0-0.345-0.047-0.508-0.14-0.152-0.105-0.263-0.245-0.333-0.42l-4.38-10.791h0.561l-4.485 10.791c-0.082 0.187-0.204 0.327-0.368 0.42-0.152 0.093-0.309 0.14-0.473 0.14z"></path>
  </symbol>

  <symbol id="icon-add" viewBox="0 0 32 32">
   <path d="M14.383 16.825v5.127c0 0.339 0.114 0.624 0.342 0.853s0.516 0.344 0.862 0.344c0.346 0 0.631-0.113 0.855-0.34s0.336-0.514 0.336-0.859v-5.124h5.165c0.339 0 0.624-0.114 0.853-0.342s0.344-0.516 0.344-0.862c0-0.346-0.113-0.631-0.34-0.855s-0.514-0.336-0.859-0.336h-5.162v-5.431c0-0.339-0.114-0.624-0.342-0.853s-0.516-0.344-0.862-0.344c-0.346 0-0.631 0.113-0.855 0.34s-0.336 0.514-0.336 0.859v5.429h-5.393c-0.339 0-0.624 0.114-0.853 0.342s-0.344 0.516-0.344 0.862c0 0.346 0.113 0.631 0.34 0.855s0.514 0.336 0.859 0.336h5.391zM15.477 30.941c-2.138 0-4.145-0.405-6.021-1.214s-3.515-1.917-4.92-3.322c-1.405-1.405-2.512-3.046-3.322-4.922s-1.214-3.885-1.214-6.026c0-2.14 0.405-4.149 1.214-6.027s1.916-3.512 3.32-4.904c1.404-1.393 3.044-2.495 4.921-3.307s3.886-1.219 6.027-1.219c2.141 0 4.15 0.406 6.028 1.218s3.513 1.914 4.905 3.306c1.392 1.392 2.494 3.028 3.306 4.91s1.218 3.892 1.218 6.032c0 2.139-0.406 4.147-1.219 6.022s-1.915 3.513-3.307 4.912c-1.392 1.399-3.029 2.506-4.909 3.321s-3.89 1.221-6.028 1.221zM15.485 28.345c3.569 0 6.604-1.254 9.103-3.762s3.749-5.551 3.749-9.128c0-3.569-1.247-6.604-3.742-9.103s-5.539-3.749-9.133-3.749c-3.56 0-6.594 1.247-9.103 3.742s-3.763 5.539-3.763 9.133c0 3.56 1.254 6.594 3.762 9.103s5.551 3.763 9.128 3.763z"></path>
  </symbol>
  <symbol id="icon-chevron-right" viewBox="0 0 7 12">
  <path d="M0.876953 0.5C0.977777 0.5 1.05475 0.530412 1.13281 0.608398L6.07715 5.55273C6.13104 5.60665 6.15622 5.64863 6.16797 5.67676V5.67773C6.18275 5.71329 6.19141 5.75306 6.19141 5.80176C6.19141 5.85046 6.18275 5.89022 6.16797 5.92578V5.92676C6.15621 5.95488 6.13103 5.99687 6.07715 6.05078L1.1084 11.0195C1.03063 11.0973 0.963489 11.1192 0.882812 11.1162C0.788784 11.1127 0.707921 11.0809 0.62207 10.9951C0.543947 10.917 0.512697 10.8402 0.512695 10.7393C0.512695 10.6384 0.543945 10.5615 0.62207 10.4834L5.30371 5.80176L0.59668 1.09473C0.519014 1.01703 0.497072 0.95072 0.5 0.870117C0.503448 0.77585 0.536015 0.694453 0.62207 0.608398C0.699995 0.530589 0.776363 0.500076 0.876953 0.5Z" fill="currentColor" stroke="currentColor"/>
</symbol>
</symbol>
</svg>