<svg width="32" height="32" viewBox="0 0 32 32" fill="none" xmlns="http://www.w3.org/2000/svg">
<g clip-path="url(#clip0_17265_1369)">
<path d="M31.5961 15.798C31.5961 24.5232 24.5232 31.5961 15.798 31.5961C15.4704 31.5961 15.1455 31.5864 14.8232 31.5664C13.4716 31.4845 12.1653 31.2318 10.9265 30.83C10.4552 30.6779 9.99334 30.5031 9.5428 30.3091C3.92878 27.8864 0 22.3011 0 15.798C0 7.07291 7.07291 0 15.798 0C24.5232 0 31.5961 7.07291 31.5961 15.798Z" fill="#33ADC1"/>
<path d="M14.8228 31.5657C12.9565 31.4521 11.1783 31.0143 9.54243 30.3083C15.6603 22.0605 5.06934 14.2046 5.06934 14.2046L6.61284 13.8235L10.409 12.8867C10.409 12.8865 21.8372 19.8577 14.8228 31.5657Z" fill="#EAE0D3"/>
<path d="M10.9261 30.83C10.4548 30.6779 9.99296 30.5031 9.54243 30.309C15.6603 22.0612 5.06934 14.2053 5.06934 14.2053L6.61284 13.8242C6.98696 14.1041 7.51054 14.4683 8.04497 14.968C10.8306 17.57 14.8718 23.1072 10.9261 30.83Z" fill="#D6C8B0"/>
<path d="M14.2215 8.79214C14.2215 12.2031 11.4566 14.9681 8.04534 14.9681C4.63436 14.9681 1.86941 12.2031 1.86941 8.79214C1.86941 8.28279 1.93064 7.78813 2.04731 7.31469C2.16326 6.84149 2.33417 6.38951 2.55209 5.96645L0 3.41436L4.18237 3.97337L2.03695 1.31353L6.94153 2.71408L6.40686 0C6.40686 0 10.6736 2.35997 12.7009 4.73367C12.8545 4.90965 12.9977 5.09478 13.131 5.28763C13.8185 6.2832 14.2215 7.49018 14.2215 8.79214Z" fill="#EAE0D3"/>
<path d="M11.3649 7.53218C11.3649 8.36745 10.6878 9.04482 9.85249 9.04482C9.01698 9.04482 8.33984 8.36745 8.33984 7.53218C8.33984 6.69667 9.01698 6.01953 9.85249 6.01953C10.6878 6.01953 11.3649 6.69667 11.3649 7.53218Z" fill="#2F373B"/>
<path d="M25.5423 8.53022C24.9214 8.85468 24.2669 8.78116 23.7414 8.60688C23.1269 8.4039 22.6897 8.06473 22.6897 8.06473C22.6897 8.06473 20.4779 5.89352 22.1796 4.94833C22.6935 4.66339 23.1096 4.6646 23.4396 4.80634H23.4403C24.2045 5.13394 24.5113 6.20882 24.5113 6.20882C24.5113 6.20882 25.1272 4.61181 26.4897 5.09537C27.8515 5.57821 26.8882 7.82681 25.5423 8.53022Z" fill="#FF648D"/>
<path d="M23.7414 8.60688C23.1269 8.40391 22.6897 8.06474 22.6897 8.06474C22.6897 8.06474 20.4779 5.89352 22.1796 4.94833C22.6935 4.66339 23.1096 4.6646 23.4396 4.80634C22.6865 4.76392 22.6627 7.53923 23.7414 8.60688Z" fill="#EA2F69"/>
<path d="M10.9337 7.04865C10.9337 7.30971 10.7221 7.52136 10.461 7.52136C10.1999 7.52136 9.98828 7.30971 9.98828 7.04865C9.98828 6.78782 10.1999 6.57617 10.461 6.57617C10.7221 6.57617 10.9337 6.78782 10.9337 7.04865Z" fill="white"/>
<path d="M23.243 9.26172C23.243 11.5658 16.9719 18.5613 21.0684 21.4603C22.0924 22.1851 23.2228 22.4214 24.3425 22.3683C25.462 22.4216 26.5923 22.1851 27.6165 21.4603C31.7129 18.5613 25.4417 11.5658 25.4417 9.26172" fill="#FF648D"/>
<path d="M24.173 22.3734C23.1085 22.3965 22.0406 22.1485 21.0684 21.4603C16.9718 18.5613 23.2432 11.5655 23.2432 9.26172H23.9153C23.9153 11.5655 21.4784 18.5613 23.0704 21.4603C23.4168 22.0909 23.7945 22.3522 24.173 22.3734Z" fill="#EA2F69"/>
<path d="M24.1729 22.3742C24.229 22.3737 24.2852 22.3716 24.3414 22.3691C24.2852 22.3761 24.229 22.3781 24.1729 22.3742Z" fill="#EA2F69"/>
<path d="M24.511 22.3742C24.4549 22.3781 24.3989 22.3761 24.3428 22.3691C24.3989 22.3716 24.4549 22.3737 24.511 22.3742Z" fill="#EA2F69"/>
<path d="M28.465 8.85522L12.8355 11.4389C12.8355 11.4389 12.29 10.6116 12.0914 9.51476C11.9147 8.53678 12.014 7.34426 13.0245 6.33398L28.465 8.85522Z" fill="#FFD62C"/>
<path d="M28.4645 8.85547L12.835 11.4391C12.835 11.4391 12.2895 10.6118 12.0908 9.51501L28.4645 8.85547Z" fill="#FFB92E"/>
<path d="M8.04534 14.969C4.63436 14.969 1.86941 12.2041 1.86941 8.79307C1.86941 8.28371 1.93064 7.78906 2.04731 7.31562C2.16326 6.84242 2.33417 6.39043 2.55209 5.96737L0 3.41528L4.18237 3.9743L2.03695 1.31445L7.03699 4.12906C7.03699 4.12906 3.94879 5.26396 3.94879 8.85622C3.94879 12.4485 8.04534 14.969 8.04534 14.969Z" fill="#D6C8B0"/>
</g>
<defs>
<clipPath id="clip0_17265_1369">
<rect width="31.5961" height="31.5961" fill="white"/>
</clipPath>
</defs>
</svg>
